<svg width="60" height="60" viewBox="0 0 60 60" fill="none" xmlns="http://www.w3.org/2000/svg"><circle cx="30" cy="30" r="30" fill="#F9C0CF"/><g clip-path="url(#clip0_124_868)" fill="#fff"><path d="M39.604 17.052c.566 2.773 2.854 4.858 5.384 5.364-.142.385-.264.77-.405 1.154-1.579 4.29-4.21 7.833-7.773 10.687-2.651 2.105-5.606 3.643-8.784 4.817-.324.121-.648.223-.971.344-.102.04-.162.02-.243-.06a809.39 809.39 0 01-4.17-4.19c-.04-.04-.08-.162-.06-.223 1.356-4.028 3.299-7.712 6.132-10.91 2.105-2.307 4.555-4.19 7.368-5.586a21.997 21.997 0 013.36-1.356.38.38 0 01.162-.04zm-1.559 9.554c0-1.457-1.174-2.652-2.59-2.652-1.498 0-2.692 1.195-2.692 2.632.02 1.437 1.194 2.63 2.63 2.63a2.613 2.613 0 002.652-2.61zm-1.922 9.169c0 .465.02.93 0 1.376-.182 3.36-1.74 5.991-4.291 8.096-1.376 1.134-2.915 1.984-4.554 2.692-.02 0-.04.02-.101.04a.704.704 0 01.121-.181c.81-1.235 1.518-2.51 1.984-3.927.364-1.032.587-2.105.506-3.218-.02-.466-.122-.911-.203-1.397 2.247-.93 4.433-2.085 6.457-3.522.04.02.06.04.081.04zm-9.837-9.837c-1.457 2.044-2.611 4.23-3.542 6.477-.547-.06-1.073-.182-1.6-.182-1.254-.04-2.468.283-3.622.749-1.154.425-2.227 1.032-3.259 1.7-.06.04-.142.08-.263.162.162-.385.304-.709.466-1.032.769-1.6 1.7-3.077 2.934-4.372 1.782-1.883 3.907-3.097 6.477-3.462a11.298 11.298 0 012.186-.08c.061 0 .122.02.223.04z"/><path d="M40.352 16.81C42.194 16.304 44.057 16 46 16c.02 1.943-.324 3.805-.81 5.647-2.186-.303-4.412-2.287-4.837-4.837zM20.376 38.548l1.154-1.154 3.076 3.077-1.154 1.153a220.347 220.347 0 01-3.076-3.076zm.546-2.895l.546-.546 5.425 5.424-.547.547c-1.801-1.802-3.623-3.603-5.424-5.425zm-.344 6.234c-.04.061-.101.183-.182.284l-3.036 3.036-1.64 1.64c-.161.161-.344.181-.506.08-.141-.1-.222-.283-.161-.445a.452.452 0 01.141-.202l4.716-4.716c.122-.122.284-.142.446-.081.121.06.202.182.222.404zm-2.125-5.242a.795.795 0 01-.162.283c-1.073 1.073-2.145 2.166-3.238 3.239a.41.41 0 01-.567.02.409.409 0 010-.566c.364-.385.749-.75 1.133-1.134.689-.688 1.377-1.376 2.065-2.044a.71.71 0 01.344-.182c.243-.02.405.161.425.384zm7.327 7.347c-.04.081-.081.183-.142.264-1.073 1.093-2.165 2.165-3.238 3.258-.162.162-.405.162-.547 0a.404.404 0 010-.546l3.259-3.259c.122-.121.283-.142.445-.08.122.06.183.181.223.363zm-10.464-.485c-.223 0-.365-.061-.405-.203-.04-.121 0-.263.02-.405 0-.04.06-.08.101-.1l3.016-3.017a.594.594 0 01.243-.141c.162-.04.283.02.385.141.1.122.1.264.02.405-.02.06-.081.101-.122.142l-2.995 2.995c-.101.102-.223.142-.263.183zm3.177 3.258c.06-.1.081-.202.162-.283 1.012-1.032 2.044-2.044 3.056-3.077.183-.182.405-.182.567-.02.162.162.162.385-.02.567-1.032 1.032-2.044 2.064-3.077 3.077-.121.12-.283.161-.445.08-.162-.04-.223-.182-.243-.344z"/></g><defs><clipPath id="clip0_124_868"><path fill="#fff" transform="translate(14 16)" d="M0 0h32v32H0z"/></clipPath></defs></svg>