<svg width="60" height="60" viewBox="0 0 60 60" fill="none" xmlns="http://www.w3.org/2000/svg"><circle cx="30" cy="30" r="30" fill="#85D0CE"/><g clip-path="url(#clip0_124_158)"><path d="M15.232 40.087c.213-1.166.426-2.265.623-3.381.18-1.067.295-2.167.574-3.217.164-.624.476-1.297.919-1.74a3317.14 3317.14 0 0115.17-15.214c.934-.936 1.492-.936 2.41-.017 2.51 2.511 5.035 5.023 7.544 7.55.919.92.919 1.477-.033 2.413-5.1 5.104-10.2 10.225-15.317 15.313-.36.36-.902.64-1.394.738-3.133.591-6.281 1.15-9.43 1.642-.41.065-1-.148-1.296-.46-3.378-3.414-5.379-7.517-5.87-12.31-.739-7.221 1.59-13.31 6.986-18.136 4.559-4.086 9.97-5.793 16.039-5.137 9.003.985 16.072 7.205 18.236 15.97 2.887 11.686-5.05 23.733-16.892 25.587-1.082.164-2.164.246-3.263.312-.951.05-1.492-.46-1.492-1.23.016-.74.54-1.183 1.443-1.215 8.528-.23 15.547-5.761 17.712-13.951 2.755-10.307-4.133-21.025-14.646-22.847-10.348-1.789-20.007 5.088-21.615 15.461-.738 4.825.328 9.273 3.067 13.327l.295.394c.05.033.099.066.23.148zm4.428-7.041c.705.738 1.46 1.51 2.1 2.166l14.12-14.131c-.657-.69-1.395-1.46-2.083-2.183-4.74 4.727-9.447 9.437-14.137 14.148zm18.155-10.061L23.662 37.149c.754.739 1.525 1.51 2.213 2.2L40.03 25.183c-.69-.706-1.444-1.444-2.214-2.2zM23.022 40.514l-4.543-4.596c-.295 1.74-.623 3.594-.967 5.564 1.968-.345 3.837-.673 5.51-.968z" fill="#fff"/></g><defs><clipPath id="clip0_124_158"><path fill="#fff" transform="translate(9 8)" d="M0 0h42v42H0z"/></clipPath></defs></svg>