<svg width="60" height="60" viewBox="0 0 60 60" fill="none" xmlns="http://www.w3.org/2000/svg"><circle cx="30" cy="30" r="30" fill="#85D0CE"/><g clip-path="url(#clip0_124_153)" fill="#fff"><path d="M25.946 31.57c-.035-3.223-.075-6.45-.11-9.674 0-.065 0-.134-.005-.2-.01-.259.06-.488.316-.598.25-.105.47-.01.66.165 1.123 1.007 2.25 2.01 3.372 3.013l10.063 8.991c.466.414.937.828 1.397 1.252.21.19.436.4.336.724-.1.32-.4.344-.676.37-1.112.114-2.224.219-3.336.328-.546.055-1.097.095-1.643.16-.621.075-.897.589-.631 1.203.255.593.53 1.177.801 1.766.736 1.611 1.468 3.228 2.204 4.84.206.449.075.788-.376.997-.726.33-1.457.659-2.183.988-.491.22-.812.105-1.032-.384-.967-2.12-1.934-4.236-2.895-6.356-.05-.115-.1-.23-.166-.335-.31-.514-.836-.593-1.287-.194-.276.244-.536.499-.807.748l-2.79 2.615c-.08.075-.16.144-.25.204-.38.25-.731.1-.806-.35a3.481 3.481 0 01-.04-.523c-.04-3.248-.076-6.496-.116-9.75zM30.52 13c.395.03.666.36.505.773-.495 1.273-.966 2.55-1.447 3.827-.065.18-.125.36-.206.534-.125.29-.39.394-.68.285a.496.496 0 01-.301-.67c.546-1.461 1.102-2.923 1.653-4.385a.53.53 0 01.475-.364zm-5.842 5.588c-.215 0-.34-.17-.44-.39-.531-1.167-1.062-2.334-1.598-3.507-.105-.224-.21-.449-.306-.678-.125-.305-.02-.584.266-.704.29-.124.56-.025.701.28a804.056 804.056 0 011.939 4.25c.17.385-.09.759-.561.749zm11.471-.319c.295.005.5.174.561.414a.488.488 0 01-.276.584c-.305.15-.62.284-.931.424-1.112.504-2.224 1.008-3.341 1.512-.376.17-.697.015-.787-.37-.06-.254.06-.464.366-.598.922-.42 1.848-.834 2.77-1.253.46-.21.922-.419 1.387-.623.096-.05.2-.075.25-.09zm-18.589.613c.046.01.126.03.201.055 1.433.534 2.865 1.068 4.298 1.612.39.15.52.459.335.783-.145.255-.375.33-.686.215-.696-.255-1.387-.514-2.078-.774-.757-.284-1.513-.563-2.264-.848-.281-.105-.406-.32-.356-.579.055-.284.26-.469.55-.464zm5.05 6.312c0 .215-.105.37-.296.454a674.782 674.782 0 01-4.317 1.946c-.29.13-.576.005-.697-.284-.12-.285-.015-.554.296-.694l3.772-1.706c.165-.075.33-.155.5-.225.381-.14.737.105.742.51z"/></g><defs><clipPath id="clip0_124_153"><path fill="#fff" transform="translate(17 13)" d="M0 0h25v33H0z"/></clipPath></defs></svg>