<svg width="61" height="61" viewBox="0 0 61 61" fill="none" xmlns="http://www.w3.org/2000/svg"><circle cx="30.262" cy="30.526" r="30" fill="#D71C5B"/><path d="M36.517 31.758c.076-.025.216-.038.418-.038.152 0 .406.026.76.076.558.051 1.026.076 1.407.076l-.19 6.08h-.837a1.883 1.883 0 00-.228-.038c-.202-.05-.67-.063-1.406-.038.076.076.102.266.076.57-.253 3.724-.405 5.688-.456 5.89-.202.228-.57.368-1.102.418-.506.051-1.406.076-2.698.076h-2.66c-.1-.101-.151-.494-.151-1.178 0-.81.076-2.153.227-4.028.102-1.216.152-1.976.152-2.28-.1 0-.506.026-1.216.076a59.7 59.7 0 01-2.128.038c-1.494 0-2.634-.012-3.42-.038-.785-.05-1.24-.164-1.367-.342-.28-.861-.419-2.014-.419-3.458 0-.886.013-1.532.038-1.938.431-.734.799-1.38 1.102-1.938.305-.557.57-1.026.799-1.406a324.873 324.873 0 012.887-4.978c.912-1.494 2.141-3.394 3.686-5.7l2.622-.038a61.647 61.647 0 012.66-.076c.71 0 1.292.064 1.748.19l-.038.76c-.177 5.32-.266 9.424-.266 12.312v.95zm-5.548-7.144c-.253.456-.696 1.356-1.33 2.698a150.185 150.185 0 01-1.671 3.382c-.406.76-.697 1.14-.875 1.14.102 0 .545.026 1.33.076.811.026 1.571.038 2.28.038l.267-7.334z" fill="#fff"/></svg>