<svg width="61" height="61" viewBox="0 0 61 61" fill="none" xmlns="http://www.w3.org/2000/svg"><circle cx="30.262" cy="30.526" r="30" fill="#D71C5B"/><path d="M33.415 34.19c-1.09.558-1.875 1.001-2.356 1.33a4.863 4.863 0 00-1.216 1.178c-.355.456-.785 1.191-1.292 2.204.583.026 1.419.038 2.508.038 1.444 0 2.52-.012 3.23-.038 1.57-.05 2.951-.076 4.142-.076.253.608.38 1.33.38 2.166l-.038.608v1.748c0 .406.025.722.076.95 0 .127-.05.203-.152.228-.076.026-.266.038-.57.038l-14.44.19-1.254.076c-.304 0-.545-.025-.722-.076a2.38 2.38 0 00-.38-.038c.101-1.317.152-2.381.152-3.192.025-1.545.101-2.786.228-3.724.152-.937.494-1.849 1.026-2.736 1.013-1.114 2.698-2.394 5.054-3.838 1.368-.836 2.444-1.558 3.23-2.166.354-.228.633-.57.836-1.026a3.87 3.87 0 00.304-1.52c0-.658-.14-1.228-.418-1.71-.279-.506-.646-.785-1.102-.836-.81.026-1.355.469-1.634 1.33-.279.836-.469 1.938-.57 3.306a33.067 33.067 0 01-4.446.304 9.547 9.547 0 01-2.318-.266 12.99 12.99 0 01-.266-2.546c0-1.241.19-2.406.57-3.496a8.567 8.567 0 011.672-2.926c.633-.76 1.608-1.342 2.926-1.748a14.134 14.134 0 014.18-.608c1.748 0 3.18.216 4.294.646 1.267.659 2.242 1.571 2.926 2.736.71 1.14 1.14 2.42 1.292 3.838v.342l.038.342c.05 1.242.063 2.154.038 2.736-.127 1.495-.71 2.698-1.748 3.61-1.014.887-2.407 1.761-4.18 2.622z" fill="#fff"/></svg>