<svg width="60" height="60" viewBox="0 0 60 60" fill="none" xmlns="http://www.w3.org/2000/svg"><circle cx="30" cy="30" r="30" fill="#85D0CE"/><g clip-path="url(#clip0_124_163)" fill="#fff"><path d="M46.655 28.74c-.306 0-.613.032-.919.065-3.109.352-5.558 1.85-7.354 4.445-.202.295-.395.402-.75.402-4.575-.009-9.15-.009-13.734-.009-1.627 0-3.07.508-4.237 1.67-2.4 2.408-4.785 4.847-7.178 7.279-.652.663-.636 1.318.016 1.99 1.273 1.293 2.546 2.587 3.819 3.872.821.827 1.651 1.654 2.457 2.456.008 0 .008 0 0 0 .024.016.048.05.064.074h.749c.008-.008.016-.008.024-.017a.158.158 0 01.081-.081h-.008c.282-.254.564-.492.83-.754 1.313-1.326 2.618-2.66 3.947-3.979a.93.93 0 01.588-.245c3.198-.017 6.388.008 9.586-.017 3.488-.032 6.074-1.629 7.741-4.732.902-1.686 1.764-3.398 2.642-5.092.935-1.81 1.87-3.619 2.788-5.428.507-.99-.04-1.908-1.152-1.9zm-4.97 8.506c-.476.917-.935 1.834-1.418 2.75-1.2 2.285-3.086 3.456-5.631 3.472-3.408.016-6.823.008-10.23 0-.492 0-.87.172-1.217.516-1.2 1.228-2.417 2.448-3.625 3.668l-.298.278a2174.8 2174.8 0 01-4.261-4.413c.04-.04.129-.14.225-.237 1.934-1.965 3.883-3.93 5.808-5.911.838-.868 1.837-1.278 3.03-1.27 4.051.009 8.111 0 12.163 0h.62c-.395.721-.725 1.4-1.128 2.031-.233.36-.652.434-1.079.426-2.642-.008-5.292 0-7.935 0-.596 0-1.055.319-1.216.818-.17.5-.032 1.056.403 1.351.217.148.515.27.773.27 2.755.017 5.502.041 8.257 0 1.466-.024 2.521-.802 3.206-2.112.572-1.105 1.136-2.219 1.716-3.324 1.007-1.924 2.497-3.283 4.551-3.962.048-.017.105-.033.153-.05.008 0 .024.009.073.033a555.73 555.73 0 00-2.94 5.666z"/><path d="M30.697 9c.708.197 1.401.426 1.957.958.717.688 1.136 1.506 1.184 2.514.024.458 0 .925 0 1.44h3.52c.83 0 1.322.475 1.322 1.302.008 4.896 0 9.792 0 14.688 0 .786-.492 1.269-1.265 1.277-4.777.008-9.554.008-14.339 0-.814 0-1.305-.507-1.313-1.375-.008-1.883-.008-3.766-.008-5.65v-8.678c0-1.138.435-1.572 1.563-1.572h3.238c.032-.548.056-1.08.089-1.604.104-1.63 1.466-3.038 3.012-3.243.049-.008.097-.04.137-.065.314.008.613.008.902.008zm5.542 19.723V16.4h-2.385v.63c0 .205.008.41 0 .615-.024.515-.314.925-.765 1.097-.822.31-1.603-.27-1.643-1.228-.017-.377 0-.753 0-1.122h-2.417c0 .434.008.843 0 1.245-.016.532-.282.9-.757 1.097-.806.327-1.603-.262-1.652-1.22-.016-.377 0-.753 0-1.122h-2.384v12.33h12.003zm-4.81-14.835c0-.442.017-.86 0-1.277a1.187 1.187 0 00-1.127-1.155c-.588-.032-1.144.385-1.225 1-.056.466-.008.94-.008 1.432h2.36z"/></g><defs><clipPath id="clip0_124_163"><path fill="#fff" transform="translate(12 9)" d="M0 0h36v42H0z"/></clipPath></defs></svg>