<svg width="60" height="60" viewBox="0 0 60 60" fill="none" xmlns="http://www.w3.org/2000/svg"><circle cx="30" cy="30" r="30" fill="#F9C0CF"/><g clip-path="url(#clip0_124_869)" fill="#fff"><path d="M45.888 18.733c-.323-1.039-1.277-1.724-2.403-1.724H23.917c-2.442-.003-4.883.016-7.325-.01-1.338-.011-2.432.94-2.566 2.128-.004.018-.016.037-.026.056v19.843c.042.164.074.328.128.49.323.995 1.28 1.68 2.358 1.68h10.1c-.026.05-.039.084-.058.118-.576.893-1.152 1.782-1.725 2.678-.054.087-.112.121-.217.118-.314-.009-.628-.015-.925.112-.643.276-1.015.955-.877 1.609.144.688.742 1.166 1.469 1.169 2.486.003 4.97 0 7.456 0 1.35 0 2.697.006 4.048-.003.637-.003 1.107-.295 1.363-.859.253-.555.166-1.082-.243-1.544-.288-.326-.669-.518-1.114-.48-.371.03-.566-.1-.749-.407-.473-.787-.992-1.553-1.49-2.328a9.306 9.306 0 00-.116-.186h.189c3.27 0 6.537-.013 9.808.006 1.389.01 2.457-.983 2.576-2.152.003-.018.016-.037.025-.056v-19.78c-.044-.159-.07-.323-.118-.478zm-15.904 27.3h-5.696 10.336-4.64zm15.008-9.841c0 .05-.006.099-.01.158h-29.98V19.508c0-.92.636-1.535 1.587-1.535h26.877c.742 0 1.334.456 1.494 1.157.026.108.029.226.029.338.003 5.575.003 11.15.003 16.724z"/><path d="M24.19 20.612c-.778 0-1.556.003-2.337-.003a.645.645 0 00-.499.198c-.185.19-.38.376-.582.57-.19-.185-.375-.356-.547-.539a.707.707 0 00-.564-.232c-.77.01-1.545.003-2.32.003-.38 0-.566.177-.566.552-.003.598 0 1.197 0 1.798 0 .372.189.549.57.552h.431v2.834c0 .375.192.558.58.558H23.2c.374 0 .566-.19.566-.555v-2.84h.429c.384 0 .572-.18.572-.549.004-.598.004-1.197 0-1.798.004-.372-.185-.549-.579-.549zm-.974 11.174a852.446 852.446 0 00-4.876.003c-.186 0-.394.037-.554.093-.31.106-.432.332-.336.53.1.208.432.348.854.35.823.004 1.645 0 2.468 0 .822 0 1.645.004 2.467-.002.525-.003.893-.211.896-.484 0-.276-.384-.487-.919-.49zm0 1.944h-4.902c-.531 0-.883.192-.883.478-.004.288.358.486.902.486h4.877c.537 0 .918-.201.925-.48 0-.276-.388-.484-.919-.484zm-4.906-2.908c.823.003 1.645 0 2.464 0h2.464c.509 0 .893-.211.89-.484-.003-.273-.384-.48-.893-.483-1.645 0-3.286-.004-4.931 0-.522 0-.88.201-.88.483.003.285.361.484.886.484zm15.216-10.21c-.777 0-1.555.003-2.336-.003a.645.645 0 00-.499.198c-.186.19-.38.376-.582.57-.19-.185-.375-.356-.548-.539a.707.707 0 00-.563-.232c-.771.01-1.545.003-2.32.003-.38 0-.566.177-.566.552-.003.598 0 1.197 0 1.798 0 .372.189.549.57.552h.431v2.834c0 .375.192.558.58.558h4.844c.375 0 .567-.19.567-.555v-2.84h.429c.384 0 .572-.18.572-.549.004-.598.004-1.197 0-1.798.004-.372-.182-.549-.579-.549zm-.432 1.932h-.445c-.33.003-.537.201-.54.524v2.855h-4v-2.837c0-.35-.199-.542-.567-.542h-.422v-.965h1.075c.234 0 .496-.059.694.025.205.084.352.307.522.468l.304.298c.25.242.531.242.787-.003.243-.233.483-.468.727-.7a.415.415 0 01.144-.085c.032-.012.073-.003.112-.003h1.606c.003.323.003.633.003.965zm-.541 9.242a852.446 852.446 0 00-4.876.003c-.186 0-.394.037-.554.093-.31.106-.432.332-.336.53.1.208.432.348.854.35.823.004 1.645 0 2.468 0 .822 0 1.644.004 2.467-.002.525-.003.893-.211.896-.484 0-.276-.384-.487-.919-.49zm0 1.944h-4.902c-.531 0-.883.192-.883.478-.004.288.358.486.902.486h4.877c.537 0 .918-.201.925-.48 0-.276-.388-.484-.919-.484zm-4.905-2.908c.823.003 1.645 0 2.464 0h2.464c.509 0 .893-.211.89-.484-.004-.273-.384-.48-.893-.483-1.645 0-3.287-.004-4.931 0-.522 0-.88.201-.88.483.003.285.361.484.886.484zm14.992-10.21c-.777 0-1.555.003-2.336-.003a.645.645 0 00-.499.198c-.185.19-.38.376-.582.57-.189-.185-.375-.356-.547-.539a.707.707 0 00-.564-.232c-.77.01-1.545.003-2.32.003-.38 0-.566.177-.566.552-.003.598 0 1.197 0 1.798 0 .372.189.549.57.552h.432v2.834c0 .375.192.558.579.558h4.845c.374 0 .566-.19.566-.555v-2.84h.429c.384 0 .573-.18.573-.549.003-.598.003-1.197 0-1.798.003-.372-.183-.549-.58-.549zm-.97 11.174a852.446 852.446 0 00-4.876.003c-.186 0-.394.037-.554.093-.31.106-.432.332-.336.53.1.208.432.348.855.35.822.004 1.644 0 2.467 0 .822 0 1.645.004 2.467-.002.525-.003.893-.211.896-.484-.003-.276-.387-.487-.918-.49zm0 1.944h-4.902c-.531 0-.883.192-.883.478-.003.288.358.486.902.486h4.877c.538 0 .918-.201.925-.48 0-.276-.39-.484-.919-.484zm-4.909-2.908c.823.003 1.645 0 2.464 0h2.464c.51 0 .893-.211.89-.484-.003-.273-.384-.48-.893-.483-1.645 0-3.286-.004-4.931 0-.522 0-.88.201-.88.483.006.285.362.484.886.484z"/></g><defs><clipPath id="clip0_124_869"><path fill="#fff" transform="translate(14 17)" d="M0 0h32v30H0z"/></clipPath></defs></svg>