<svg width="60" height="60" viewBox="0 0 60 60" fill="none" xmlns="http://www.w3.org/2000/svg"><circle cx="30" cy="30" r="30" fill="#F9C0CF"/><g clip-path="url(#clip0_124_867)" fill="#fff"><path d="M26.57 37.012c.14-.417.265-.816.414-1.21.023-.055.154-.096.235-.096 1.502-.004 3.01-.004 4.512-.004h8.464v-2.506c.005-.743.496-1.242 1.227-1.247 1.679-.004 3.353-.004 5.031 0 .722 0 1.223.503 1.223 1.229.004 1.527.004 3.05 0 4.577 0 .177-.045.353-.077.584-1.268-1.291-2.72-1.712-4.345-.987-1.629.725-2.292 2.084-2.193 3.86H30.147c.104-1.073-.153-2.048-.857-2.877-.704-.838-1.615-1.26-2.72-1.323z"/><path d="M44.526 31.582h-.812V29.29a.264.264 0 00-.058-.009 2.638 2.638 0 00-.077.222c-.212.635-.429 1.27-.636 1.908-.045.136-.104.19-.253.186-.46-.01-.916.009-1.376-.005-.528-.018-1.024.046-1.39.503.199-.598.397-1.196.6-1.794.257-.77.542-1.537.776-2.316.357-1.197 1.746-1.332 2.342-.54.009.01.022.014.059.037.004-.073.013-.136.013-.2V22.07c0-.839-.532-1.369-1.371-1.369-2.965 0-5.925.005-8.889-.004-.532 0-.916.217-1.123.68-.226.498-.397 1.024-.564 1.545-1.06 3.335-2.107 6.68-3.163 10.02-.054.168-.027.258.117.349.158.095.307.218.479.344.861-.951 1.714-1.898 2.585-2.86-.357-.33-.7-.647-1.038-.965-.302-.285-.374-.67-.207-1.01.252-.508.897-.612 1.335-.213.627.575 1.25 1.155 1.873 1.736.28.262.563.52.843.784.366.353.402.87.081 1.214-.315.34-.839.345-1.213.005-.294-.268-.587-.54-.898-.83-.844.934-1.674 1.854-2.513 2.778.316.34.622.676.93 1.007a.524.524 0 00-.028.058h-.235c-1.263 0-2.526.01-3.79-.004-.22 0-.31.068-.37.276-.117.422-.261.834-.41 1.247-.027.077-.113.172-.18.18-.984.155-1.778.626-2.396 1.401-.018.023-.04.041-.063.064-.005.004-.014 0-.041 0-.005-.064-.01-.127-.01-.19v-3.15c0-.585.33-.916.908-.92h.622v-5.625H12.018l-.013-.04c.054-.032.104-.068.158-.095a85.672 85.672 0 011.592-.753.925.925 0 01.37-.068c3.52-.004 7.039-.004 10.558-.004h.311c.005-.114.014-.209.014-.304 0-2.207.005-4.41-.005-6.617 0-.213.05-.285.271-.28.56.013 1.124.004 1.715.004v13.777c.121 0 .216-.009.306 0 .14.014.194-.05.235-.177.402-1.273.808-2.542 1.214-3.816l2.924-9.177a4.12 4.12 0 01.212-.521c.28-.553.703-.83 1.353-.83 3.285.014 6.574.005 9.859.01.708 0 1.267.43 1.42 1.092.028.118.032.24.037.358v10.197a1.556 1.556 0 00-.023.208zm-18.241 2.67v-5.61h-.569v5.61h.569z"/><path d="M14.157 20.162h10.409v7.097H14.157v-7.097zm12.335 17.289a3.268 3.268 0 013.262 3.263 3.28 3.28 0 01-3.27 3.282c-1.801 0-3.263-1.478-3.258-3.29a3.261 3.261 0 013.266-3.255zm-.004 4.555c.713 0 1.3-.59 1.29-1.296a1.314 1.314 0 00-1.29-1.283 1.29 1.29 0 00-1.282 1.306 1.275 1.275 0 001.282 1.273zm18.259-4.555c1.823.005 3.262 1.478 3.253 3.318-.009 1.776-1.493 3.231-3.284 3.227-1.787-.005-3.258-1.5-3.244-3.29a3.263 3.263 0 013.275-3.255zm1.268 3.272c0-.72-.577-1.3-1.29-1.291a1.3 1.3 0 00-1.277 1.291 1.283 1.283 0 102.567 0zM24.841 18v1.781H13.895V18h10.946zm8.979 17.326c-.077-.399.004-.77.207-1.106.302-.503.749-.82 1.34-.83 1.218-.022 2.437-.013 3.655-.013.469 0 .469 0 .622-.458a.412.412 0 01.09-.176v2.587c-1.967-.004-3.934-.004-5.915-.004z"/></g><defs><clipPath id="clip0_124_867"><path fill="#fff" transform="translate(12 18)" d="M0 0h36v26H0z"/></clipPath></defs></svg>