<svg width="60" height="60" viewBox="0 0 60 60" fill="none" xmlns="http://www.w3.org/2000/svg"><circle cx="30" cy="30" r="30" fill="#F9C0CF"/><g clip-path="url(#clip0_124_876)" fill="#fff"><path d="M43 44.114h-6.42c.075-.33.171-.648.208-.972.225-1.83-.39-3.326-1.874-4.39-1.474-1.052-3.066-1.144-4.7-.366-.134.064-.235.108-.39.027a4.51 4.51 0 00-5.048.567c-1.42 1.214-1.954 3.072-1.399 4.902.021.065.038.135.064.227H17v-8.584c.005-3.062 2.313-5.4 5.336-5.405 3.61 0 7.226.005 10.837.005 1.506 0 3.006-.01 4.513-.005 2.708.005 4.903 1.938 5.271 4.649.032.22.032.448.032.674v8.396c.011.08.011.162.011.275zM30.005 27.788c-4.022 0-7.317-3.315-7.322-7.37C22.677 16.315 25.946 13 29.994 13c4.06 0 7.323 3.31 7.323 7.413-.005 4.054-3.29 7.375-7.312 7.375z"/><path d="M30 40.221c.71-.67 1.522-1.004 2.467-.928 1.245.097 2.18.712 2.708 1.857.529 1.14.406 2.267-.33 3.26-.455.616-1.037 1.135-1.571 1.685a269.15 269.15 0 01-2.49 2.522c-.506.513-1.057.513-1.57 0-1.228-1.237-2.462-2.473-3.68-3.72-1.265-1.301-1.35-3.223-.224-4.514a3.196 3.196 0 014.508-.318c.059.043.107.092.182.156z"/></g><defs><clipPath id="clip0_124_876"><path fill="#fff" transform="translate(17 13)" d="M0 0h26v36H0z"/></clipPath></defs></svg>