<svg width="60" height="60" viewBox="0 0 60 60" fill="none" xmlns="http://www.w3.org/2000/svg"><circle cx="30" cy="30" r="30" fill="#85D0CE"/><g clip-path="url(#clip0_124_93)" fill="#fff"><path d="M34.993 48h-.346c-.069-.052-.138-.121-.224-.121a7021.809 7021.809 0 00-16.828-3.155c-1.52-.277-3.023-.572-4.595-.867.26-2.132.501-4.16.76-6.17.674-5.252 1.417-10.504 2.021-15.774.173-1.421.605-2.34 2.108-2.513.329-.035.64-.26.985-.312 1.348-.173 1.918-.901 2.35-2.236 1.14-3.57 2.747-6.83 6.841-7.852h1.21c.449.295.898.59 1.364.867.207.121.45.294.674.312 1.313.052 2.194.797 2.85 1.82.38.589.674 1.265 1.02 1.941.363-.087.743-.156 1.175-.26 0 .364.017.641 0 .936-.121 2.565-.225 5.13-.346 7.696-.207 4.836-.432 9.69-.639 14.525-.121 3.727-.26 7.436-.38 11.163zM19.254 36.56c-.276.919-.605 1.907-.881 2.93-.052.173.052.433.173.589 1.831 2.08 6.064 2.704 8.379 1.317 2.747-1.664 4.025-7.02.293-9.88-.725-.555-1.468-1.11-2.176-1.699-.501-.416-.899-.918-.726-1.646.19-.78.708-1.335 1.503-1.335 1.261 0 2.523.156 3.905.26.431-1.23.933-2.687 1.45-4.212-2.556-.85-4.94-.71-7.273.416-3.558 1.716-5.545 7.783-1.036 10.781.466.312.88.746 1.244 1.196.518.642.725 1.404.207 2.15-.484.728-1.227.866-1.987.572-1.036-.416-2.021-.936-3.075-1.439zm2.972-18.53c1.019-.311 1.83-.554 2.643-.849.224-.086.484-.329.535-.554.553-2.479 1.59-4.663 3.888-6.067-1.106-.347-2.28-.07-3.3.815-2.004 1.716-2.954 4.038-3.766 6.656zm8.154-6.43c-2.16 1.179-2.954 2.895-3.559 4.975 1.296-.399 2.402-.728 3.507-1.092.156-.052.363-.312.346-.468-.052-1.075-.173-2.15-.294-3.415zm3.455 2.79c-.362-1.663-1.14-2.651-2.107-2.72.138 1.074.259 2.131.397 3.258.57-.173 1.106-.347 1.71-.537zM35.51 48c.139-3.64.26-7.263.398-10.885.138-3.692.311-7.384.467-11.06.172-4.055.362-8.128.57-12.392.673.676 1.33 1.178 1.814 1.82.656.849 1.59.693 2.436.78 1.71.173 1.675.156 1.935 1.906.656 4.524 1.347 9.048 2.021 13.572a1472.83 1472.83 0 011.762 12.22c.208 1.508.173 1.508-1.365 1.838-3.23.693-6.444 1.386-9.657 2.097-.07.017-.138.104-.19.139-.087-.035-.138-.035-.19-.035z"/></g><defs><clipPath id="clip0_124_93"><path fill="#fff" transform="translate(13 9)" d="M0 0h34v39H0z"/></clipPath></defs></svg>