<svg width="60" height="60" viewBox="0 0 60 60" fill="none" xmlns="http://www.w3.org/2000/svg"><circle cx="30" cy="30" r="30" fill="#F9C0CF"/><g clip-path="url(#clip0_124_870)" fill="#fff"><path d="M24.126 23.493h-3.455c-.753 0-1.495 0-2.248.011-.687.01-1.03.337-1.03 1.021 0 4.312.011 8.613 0 12.925 0 .38.11.49.498.49 4.131-.012 8.262 0 12.393 0h12.78c.631 0 .631 0 .631-.62 0-2.542.011-5.072-.011-7.614 0-.424.011-.76.52-.88.155-.032.288-.174.532-.315v.576c0 3.476.011 6.951 0 10.416 0 .391.122.598.465.772a126.12 126.12 0 013.179 1.694c.598.326.786.869.52 1.423-.221.456-.62.619-1.118.608-2.105-.01-4.198 0-6.302 0-7.11 0-14.22 0-21.34-.01h-6.966c-.776 0-1.252-.533-1.152-1.25.055-.402.321-.63.653-.815 1.02-.543 2.038-1.097 3.068-1.607.388-.196.531-.435.531-.869-.022-5.083-.01-10.177-.01-15.26 0-1.663.874-2.445 2.558-2.401 1.35.043 2.702.022 4.053 0 .388-.011.587.076.709.456.122.402.332.782.542 1.25z"/><path d="M28.878 28.424c-.953.348-1.784.663-2.614.967l-6.877 2.574c-.61.228-1.053.065-1.24-.445-.167-.445.066-.847.63-1.065l10.831-4.04c.742-.272 1.318.206 1.163.967-.221 1.053-.476 2.107-.709 3.16-.044.174-.066.359-.121.641 3.987-1.977 7.874-3.91 11.816-5.865-.177-.315-.343-.587-.487-.87-.177-.358-.056-.575.343-.564 1.074.033 2.138.065 3.212.13.487.033.587.229.376.663a89.117 89.117 0 01-1.373 2.715c-.233.446-.487.435-.775.022-.498-.717-.498-.706-1.296-.315-2.425 1.206-4.85 2.4-7.265 3.595a747.322 747.322 0 00-5.138 2.564c-.366.184-.72.271-1.086.021-.376-.26-.354-.64-.265-1.02.276-1.217.564-2.466.875-3.835zm1.273-2.639c-3.256 0-5.969-2.618-5.98-5.768-.011-3.4 2.636-6.017 6.047-6.017 3.244 0 5.969 2.65 5.958 5.79 0 3.366-2.636 5.995-6.025 5.995zm.022-.739c2.869.011 5.25-2.259 5.272-5.029.033-2.943-2.293-5.278-5.272-5.29-2.868-.01-5.26 2.293-5.271 5.073-.011 2.944 2.303 5.235 5.271 5.246z"/><path d="M37.515 36.527c-.022-.184-.044-.304-.044-.413 0-1.78 0-3.562-.011-5.354 0-.283.1-.446.365-.565.598-.272 1.174-.576 1.839-.902.022.196.044.326.044.457 0 2.085-.011 4.17.011 6.256 0 .402-.133.532-.531.521-.554-.022-1.108 0-1.673 0zM25.09 30.912v1.097c0 1.347-.01 2.704.011 4.051 0 .359-.11.489-.476.478-.454-.022-.908-.01-1.362 0-.288.01-.42-.087-.41-.391.011-1.347 0-2.704.011-4.051 0-.13.078-.348.177-.391.632-.283 1.296-.522 2.05-.793zm10.908.173c.033.229.056.37.056.5 0 1.466-.012 2.944 0 4.41 0 .358-.1.532-.499.5-.443-.022-.886 0-1.318.021-.31.011-.454-.065-.454-.402.022-1.183 0-2.367.022-3.54 0-.142.067-.348.166-.413.643-.37 1.307-.695 2.027-1.076zm.244-7.592c.233-.543.432-1.043.665-1.52.044-.087.243-.153.365-.153 1.839-.01 3.666-.01 5.504 0 .642 0 1.14.305 1.595.88-.222.011-.366.033-.52.022a153.08 153.08 0 01-2.249-.087c-.564-.022-1.019.185-1.384.62-.089.097-.222.227-.332.238-1.207.011-2.404 0-3.644 0zm-8.792 6.604c-.156.695-.311 1.336-.444 1.977-.266 1.249.21 1.998 1.462 2.39.122.032.266.227.277.347.033.456 0 .923.01 1.38 0 .228-.099.304-.32.304-.499-.011-.997-.022-1.495 0-.366.021-.454-.12-.443-.446.01-1.314.01-2.617.01-3.932 0-.325 0-.662-.01-.988-.022-.836 0-.847.952-1.032zm4.95 2.824c0 1.173.01 2.248-.012 3.335 0 .087-.2.25-.31.26-.532.022-1.052 0-1.584 0-.243 0-.332-.108-.332-.347.011-.62-.011-1.238.011-1.858 0-.14.089-.336.2-.39.63-.348 1.284-.642 2.026-1zm-2.304-8.461c-2.503-.011-4.607-2.064-4.596-4.486.011-2.596 2.06-4.66 4.607-4.67 2.603 0 4.762 2.063 4.729 4.55-.011 2.629-2.071 4.628-4.74 4.606zm.554-6.821c.055-.011.1-.033.155-.044.088.163.2.315.265.489.111.293.255.543.632.434.354-.108.454-.39.387-.727-.11-.565-.454-.967-.985-1.184-.255-.109-.465-.185-.52-.5-.023-.12-.278-.282-.422-.271-.143 0-.287.173-.42.293-.155.152-.255.37-.432.467-.654.358-.986.88-.997 1.607-.011.74.388 1.239.986 1.63.144.098.354.217.354.336.033.685.022 1.358.022 2.097-.443-.152-.631-.424-.764-.76-.122-.316-.332-.533-.698-.413-.376.13-.42.434-.332.782.188.684.676 1.108 1.318 1.357.288.11.51.207.576.554.022.12.266.272.41.283.143 0 .41-.163.42-.26.023-.36.244-.435.52-.533 1.518-.576 1.828-2.4.577-3.432-.222-.185-.499-.305-.742-.468-.1-.065-.266-.162-.277-.25-.044-.488-.033-.988-.033-1.487z"/><path d="M30.672 22.244V20.55c.454.12.698.369.73.782.034.445-.232.782-.73.912zm-.997-3.497c-.465-.392-.454-.76 0-1.13v1.13z"/></g><defs><clipPath id="clip0_124_870"><path fill="#fff" transform="translate(12 14)" d="M0 0h37v30H0z"/></clipPath></defs></svg>