<svg width="61" height="61" viewBox="0 0 61 61" fill="none" xmlns="http://www.w3.org/2000/svg"><circle cx="30.262" cy="30.526" r="30" fill="#D71C5B"/><path d="M21.746 40.194c-.05-.304-.114-.899-.19-1.786v-.152c-.05-.76-.076-1.52-.076-2.28.482.026 1.039 0 1.672-.076.557-.05.976-.076 1.254-.076a11.84 11.84 0 011.786-.152c.304 0 .76.026 1.368.076.228.608.608 1.153 1.14 1.634.532.482 1.077.722 1.634.722.482 0 .925-.291 1.33-.874v.038c.177-.354.266-.772.266-1.254 0-.354-.076-.696-.228-1.026a2.255 2.255 0 00-.494-.798 6.25 6.25 0 00-1.102-.456 3.73 3.73 0 00-1.102-.19c-.532 0-1.203.102-2.014.304a4.46 4.46 0 01-.494-2.09c0-.278.026-.722.076-1.33l.038-1.292c0-.405-.012-.709-.038-.912.583-.253 1.419-.38 2.508-.38.963-.025 1.685-.152 2.166-.38.507-.253.722-.836.646-1.748-.025-.608-.165-1.064-.418-1.368a1.187 1.187 0 00-.95-.456c-.557 0-1.14.216-1.748.646-.608.431-1.026.938-1.254 1.52-.582.102-1.786.152-3.61.152l-2.508-.076-.038-1.596v-.836c0-.481.064-.937.19-1.368v.038c.482-1.621 1.546-2.85 3.192-3.686 1.647-.861 3.509-1.292 5.586-1.292 1.622 0 3.154.317 4.598.95 1.47.608 2.533 1.406 3.192 2.394.177.304.317.735.418 1.292.102.558.165 1.077.19 1.558.05 1.976.076 3.648.076 5.016 0 1.774-.05 4.307-.152 7.6a9.6 9.6 0 00-.038.988c-.025.71-.089 1.33-.19 1.862a6.309 6.309 0 01-.456 1.596 6.992 6.992 0 01-1.634 2.242 6.78 6.78 0 01-2.508 1.406c-.937.304-2.178.456-3.724.456a20.64 20.64 0 01-2.774-.19c-.608-.076-1.114-.19-1.52-.342l-.342-.076-.304-.114h.038c-.582-.177-1.038-.354-1.368-.532-.33-.202-.557-.367-.684-.494-.81-.81-1.28-1.748-1.406-2.812z" fill="#fff"/></svg>