<svg width="60" height="60" viewBox="0 0 60 60" fill="none" xmlns="http://www.w3.org/2000/svg"><circle cx="30" cy="30" r="30" fill="#F9C0CF"/><g clip-path="url(#clip0_124_857)" fill="#fff"><path d="M45.995 25.153v14.703c0 1.057-.65 1.871-1.665 2.103-.135.03-.28.041-.42.046-9.275 0-18.55.005-27.825 0-1.15 0-2.08-.92-2.085-2.073 0-4.9.005-9.794.005-14.693 0-.025.005-.05.01-.111.16.096.305.187.455.273 4.885 3.029 9.77 6.057 14.655 9.09.58.36 1.16.37 1.74.01 3.945-2.441 7.89-4.878 11.835-7.32 1.045-.648 2.085-1.29 3.13-1.932.045-.025.085-.05.165-.096z"/><path d="M30.01 19h13.845c1.235 0 2.135.925 2.145 2.174 0 .167-.05.253-.185.339-1.77 1.087-3.535 2.184-5.3 3.276-3.435 2.124-6.87 4.247-10.3 6.376-.155.096-.26.101-.42 0-3.81-2.371-7.625-4.738-11.44-7.104-1.39-.86-2.78-1.724-4.17-2.584-.13-.075-.185-.156-.185-.313 0-1.203.92-2.159 2.11-2.164h13.9z"/></g><defs><clipPath id="clip0_124_857"><path fill="#fff" transform="translate(14 19)" d="M0 0h32v23H0z"/></clipPath></defs></svg>