<svg width="61" height="61" viewBox="0 0 61 61" fill="none" xmlns="http://www.w3.org/2000/svg"><circle cx="30.262" cy="30.526" r="30" fill="#D71C5B"/><path d="M32.918 44.716a23.89 23.89 0 01-4.294-.38v-3.8c0-1.621.076-4.053.228-7.296l.076-1.216c.101-2.33.152-4.04.152-5.13-.33.431-.697.646-1.102.646-.178 0-.722-.101-1.634-.304a23.655 23.655 0 01-2.432-.684c-.735-.253-1.102-.456-1.102-.608.05-.481.418-1.355 1.102-2.622a62.538 62.538 0 012.318-3.876c.836-1.292 1.33-2.014 1.482-2.166h.456a83.377 83.377 0 013.268-.076c1.621 0 3.141.064 4.56.19.126 1.799.19 3.978.19 6.536 0 1.951-.076 4.826-.228 8.626a216.88 216.88 0 00-.19 8.626c0 1.191.012 2.078.038 2.66 0 .583-.963.874-2.888.874z" fill="#fff"/></svg>